<svg width="4" height="12" viewBox="0 0 4 12" fill="none" xmlns="http://www.w3.org/2000/svg">
<path fill-rule="evenodd" clip-rule="evenodd" d="M1.99996 3.33335C2.73329 3.33335 3.33329 2.73335 3.33329 2.00002C3.33329 1.26669 2.73329 0.666687 1.99996 0.666687C1.26663 0.666687 0.666626 1.26669 0.666626 2.00002C0.666626 2.73335 1.26663 3.33335 1.99996 3.33335ZM1.99996 4.66669C1.26663 4.66669 0.666626 5.26669 0.666626 6.00002C0.666626 6.73335 1.26663 7.33335 1.99996 7.33335C2.73329 7.33335 3.33329 6.73335 3.33329 6.00002C3.33329 5.26669 2.73329 4.66669 1.99996 4.66669ZM1.99996 8.66669C1.26663 8.66669 0.666626 9.26669 0.666626 10C0.666626 10.7334 1.26663 11.3334 1.99996 11.3334C2.73329 11.3334 3.33329 10.7334 3.33329 10C3.33329 9.26669 2.73329 8.66669 1.99996 8.66669Z" fill="black" fill-opacity="0.54"/>
</svg>
