<svg width="18" height="18" viewBox="0 0 18 18" fill="none" xmlns="http://www.w3.org/2000/svg">
<mask id="mask0" mask-type="alpha" maskUnits="userSpaceOnUse" x="0" y="0" width="18" height="18">
<rect width="18" height="18" rx="9" fill="#C4C4C4"/>
</mask>
<g mask="url(#mask0)">
<rect width="18" height="18" fill="white"/>
<rect width="18" height="18" fill="black" fill-opacity="0.08"/>
<path fill-rule="evenodd" clip-rule="evenodd" d="M12.0418 13.5444C11.9615 13.4589 11.8495 13.4105 11.7322 13.4105C11.615 13.4105 11.5029 13.4589 11.4226 13.5444L8.99984 15.6756L6.57704 13.5444C6.49675 13.4589 6.3847 13.4105 6.26744 13.4105C6.15018 13.4105 6.03813 13.4589 5.95784 13.5444C5.59784 13.8432 4.57544 14.7468 4.57544 14.7468C4.57544 14.7468 5.34224 16.086 5.79224 16.3848C6.24224 16.6836 6.27824 17.0004 7.23224 17.3172C8.18624 17.634 8.40224 17.634 8.61464 17.7852C8.71672 17.8595 8.81411 17.9401 8.90624 18.0264L8.92424 18.0912L8.99984 18.1848C9.54596 17.811 10.1423 17.5165 10.771 17.31C11.7214 16.9932 11.761 16.6764 12.211 16.3776C12.661 16.0788 13.4278 14.7396 13.4278 14.7396C13.4278 14.7396 12.3946 13.8432 12.0418 13.5444Z" fill="white"/>
<path fill-rule="evenodd" clip-rule="evenodd" d="M11.7432 14.7108C11.7432 13.746 11.6028 12.0792 11.6028 12.0792L9.00004 12.63L6.39724 12.072C6.39724 12.072 6.25684 13.7388 6.25684 14.7036C6.25684 15.6684 7.08124 17.4036 8.99644 17.4072V17.4072C10.9188 17.4108 11.7432 15.6756 11.7432 14.7108Z" fill="#E6E6E6"/>
<path fill-rule="evenodd" clip-rule="evenodd" d="M14.4323 15.2436C14.4323 15.2436 13.1975 15.5424 12.5531 16.2336C11.9087 16.9248 10.6775 17.3748 10.0799 17.562C9.67911 17.6872 9.3105 17.8985 8.99995 18.1812C8.69464 17.9008 8.33239 17.6896 7.93795 17.562C7.32235 17.3748 6.09475 16.9248 5.44675 16.2336C4.79875 15.5424 3.56755 15.2436 3.56755 15.2436L-0.172852 16.7772V21.1728H18.1871V16.7772L14.4323 15.2436Z" fill="#9E9E9E"/>
<path fill-rule="evenodd" clip-rule="evenodd" d="M5.03984 15.0204C5.18265 14.7218 5.37772 14.4511 5.61584 14.2212C5.834 14.0611 6.0625 13.9156 6.29984 13.7856L6.33224 13.1988L5.95064 13.2564L4.75904 13.7892L4.58984 14.3616L5.03984 15.0204Z" fill="#9E9E9E"/>
<path fill-rule="evenodd" clip-rule="evenodd" d="M12.9599 15.0204C12.8171 14.7218 12.622 14.4511 12.3839 14.2212C12.1657 14.0611 11.9372 13.9156 11.6999 13.7856L11.6675 13.1988L12.0491 13.2564L13.2407 13.7892L13.4099 14.3616L12.9599 15.0204Z" fill="#9E9E9E"/>
<path fill-rule="evenodd" clip-rule="evenodd" d="M9.00002 18.228C9.00002 18.228 9.12602 17.7924 7.78322 17.346C6.81445 17.0836 5.99743 16.4321 5.52602 15.546C5.13362 14.8584 5.06522 14.3832 4.89602 14.1744C4.72682 13.9656 4.77002 13.8144 5.21642 13.656C5.66282 13.4976 6.31442 13.206 6.31442 13.206V12.9936C6.05964 13.1502 5.78471 13.2713 5.49722 13.3536C5.11982 13.4354 4.77449 13.6256 4.50362 13.9008L4.20842 14.304C4.09509 14.2983 3.9857 14.3463 3.91322 14.4336C3.80202 14.5868 3.72582 14.7625 3.69002 14.9484C3.69002 15.0348 3.46682 15.0204 3.36962 15.078C3.27242 15.1356 3.17162 15.384 3.36962 15.456C4.08227 15.7659 4.76241 16.1457 5.40002 16.59C6.12998 17.1407 6.97996 17.5108 7.88042 17.67C8.77682 17.8068 9.00002 18.228 9.00002 18.228Z" fill="#C7C7C7"/>
<path fill-rule="evenodd" clip-rule="evenodd" d="M8.99999 18.228C8.99999 18.228 8.86679 17.7924 10.2096 17.346C11.1784 17.0836 11.9954 16.4321 12.4668 15.546C12.8592 14.8584 12.9276 14.3832 13.0968 14.1744C13.266 13.9656 13.2228 13.8144 12.7764 13.656C12.33 13.4976 11.6964 13.206 11.6964 13.206V12.9936C11.9512 13.1502 12.2261 13.2713 12.5136 13.3536C12.891 13.4354 13.2363 13.6256 13.5072 13.9008C13.662 14.1096 13.9968 14.2932 14.0976 14.4336C14.2588 14.6645 14.4408 14.8801 14.6412 15.078C14.742 15.132 14.8392 15.384 14.6412 15.456C13.9248 15.7652 13.241 16.1451 12.6 16.59C11.87 17.1407 11.02 17.5108 10.1196 17.67C9.22319 17.8068 8.99999 18.228 8.99999 18.228Z" fill="#C7C7C7"/>
<path fill-rule="evenodd" clip-rule="evenodd" d="M13.0751 8.00759C12.9631 7.99135 12.8497 8.02564 12.7655 8.10119C12.7499 7.81821 12.7753 7.53447 12.8411 7.25879C12.9599 6.69719 12.6647 4.70999 12.6647 4.70999L8.99987 2.97119L5.34227 4.70999C5.34227 4.70999 5.05427 6.69719 5.16587 7.25879C5.23162 7.53447 5.25709 7.81821 5.24147 8.10119C5.1597 8.02388 5.04649 7.98925 4.93547 8.00759C4.78787 8.05799 4.66907 8.19119 4.80227 8.45039C4.92986 8.76364 4.99586 9.09855 4.99667 9.43679C4.97843 9.79649 5.08247 10.1518 5.29187 10.4448C5.52947 10.6788 5.65187 10.6932 5.65187 10.6932C5.68443 11.2423 5.829 11.7789 6.07667 12.27C6.50386 12.8503 6.9861 13.388 7.51667 13.8756C7.88997 14.3024 8.43294 14.5423 8.99987 14.5308V14.5308C9.57305 14.539 10.1203 14.2924 10.4939 13.8576C11.0245 13.37 11.5067 12.8323 11.9339 12.252C12.1873 11.7685 12.3381 11.2378 12.3767 10.6932C12.3767 10.6932 12.4811 10.6932 12.7367 10.4448C12.9476 10.1525 13.0519 9.79669 13.0319 9.43679C13.0339 9.09833 13.1011 8.76343 13.2299 8.45039C13.3415 8.19119 13.2191 8.05799 13.0751 8.00759Z" fill="white"/>
<path fill-rule="evenodd" clip-rule="evenodd" d="M5.43235 9.44401C5.43235 9.44401 5.43235 8.64481 5.43235 7.93201C5.43235 7.21921 5.27395 6.45961 5.51155 6.05281C5.74915 5.64601 5.99035 6.08161 6.56635 5.54881C7.14235 5.01601 7.36555 4.73881 7.72915 4.72441C8.09275 4.71001 8.83435 4.87921 9.52915 4.62721C10.224 4.37521 10.6632 4.10881 10.9296 4.22041C11.196 4.33201 11.0016 4.89001 11.4912 5.17081C11.9808 5.45161 12.3048 5.35441 12.33 5.99881C12.3552 6.64321 12.3588 7.73401 12.402 8.15881C12.4452 8.58361 12.4848 9.23881 12.4848 9.23881C12.6559 8.96936 12.7971 8.68207 12.906 8.38201C12.9744 8.09041 13.2876 8.02201 13.266 7.78081C13.2444 7.53961 13.374 7.55761 13.4316 7.27681C13.4483 6.83198 13.4291 6.38653 13.374 5.94481C13.3452 5.37241 13.4316 4.57321 13.1796 4.24921C12.9276 3.92521 12.3804 3.52921 12.2976 3.32401C12.166 3.0921 11.9712 2.90233 11.736 2.77681C11.5956 2.73361 11.5956 2.03521 10.9368 1.83721C10.278 1.63921 10.0548 1.83721 10.0548 1.83721C9.59883 1.57038 9.06407 1.47107 8.54275 1.55641C8.23373 1.61052 7.94088 1.73357 7.68595 1.91641C7.47803 1.93579 7.27971 2.01312 7.11355 2.13961C6.92995 2.31961 6.81835 2.56081 6.60955 2.65801C6.40075 2.75521 5.99035 2.50321 5.75275 2.75521C5.59062 2.94902 5.46829 3.17288 5.39275 3.41401C5.20981 3.32431 4.99044 3.35729 4.84195 3.49681C4.45862 3.859 4.30394 4.40176 4.43875 4.91161C4.59136 5.24975 4.64383 5.62456 4.58995 5.99161C4.5852 6.40952 4.63727 6.82613 4.74475 7.23001C4.80235 7.48201 4.77355 8.01481 4.91395 8.14081C5.06322 8.28152 5.16191 8.46752 5.19475 8.67001C5.21995 8.86081 5.12275 8.95801 5.22715 9.15601C5.28505 9.25907 5.35385 9.35563 5.43235 9.44401Z" fill="#757575"/>
</g>
</svg>
