<svg width="14" height="16" viewBox="0 0 14 16" fill="none" xmlns="http://www.w3.org/2000/svg">
<path fill-rule="evenodd" clip-rule="evenodd" d="M13.75 14C13.75 14.825 13.075 15.5 12.25 15.5H1.75C0.9175 15.5 0.25 14.825 0.25 14L0.2575 3.5C0.2575 2.675 0.9175 2 1.75 2H2.5V0.5H4V2H10V0.5H11.5V2H12.25C13.075 2 13.75 2.675 13.75 3.5V14ZM12.25 5H1.75V3.5H12.25V5ZM12.25 14V6.5H1.75V14H12.25ZM6.40533 12.7035L10.3107 8.79816L9.25 7.7375L6.40533 10.5822L5.06066 9.2375L4 10.2982L6.40533 12.7035Z" fill="black" fill-opacity="0.54"/>
</svg>
